# xmcd
#
# Track frame offsets: 
#        150
#        22322
#        45207
#        65567
#        83425
#        105952
#        129845
#        152507
#        166459
#        193702
#        219992
#
# Disc length: 3197 seconds
#
# Revision: 0
# Processed by: cddbd v1.5.2PL0 Copyright (c) Steve Scherf et al.
# Submitted via: ExactAudioCopy v1.3
#
DISCID=800c7b0b
DTITLE=Mark The Harper - Man on a Mission
DYEAR=1996
DGENRE=Blues
TTITLE0=Friendly Neighborhood Bluesman
TTITLE1=Amiga
TTITLE2=Batch of Blues
TTITLE3=Red Light Runner
TTITLE4=Little Red Mojo
TTITLE5=Funky Black Hat
TTITLE6=So Many Pretty Women
TTITLE7=Rockin' the Joint
TTITLE8=Man on a Mission
TTITLE9=Menina Muito Bela
TTITLE10=Astor Place
EXTD=
EXTT0=
EXTT1=
EXTT2=
EXTT3=
EXTT4=
EXTT5=
EXTT6=
EXTT7=
EXTT8=
EXTT9=
EXTT10=
PLAYORDER=
